# xmcd CD database file
#
# Track frame offsets:
#	150
#	30675
#	64138
#	90618
#	113795
#	148150
#	175113
#	208404
#	243296
#	285566
#
# Disc length: 4160 seconds
#
# Revision: 0
# Processed by: cddbd v1.5.2PL0 Copyright (c) Steve Scherf et al.
# Submitted via: cdripper 1,0,39,0213
#
DISCID=92103e0a
DTITLE=Carl Saunders - Out Of The Blue
DYEAR=1996
DGENRE=Jazz
TTITLE0=Stella By Starlight
TTITLE1=We'll Be Together Again
TTITLE2=Prudence
TTITLE3=Personas Gratus
TTITLE4=Sad Happiness
TTITLE5=I Should Care
TTITLE6=Love For Sale
TTITLE7=Haunted Heart
TTITLE8=Minute Waltz
TTITLE9=This Is The Blues
EXTD=YEAR: 1996
EXTT0=
EXTT1=
EXTT2=
EXTT3=
EXTT4=
EXTT5=
EXTT6=
EXTT7=
EXTT8=
EXTT9=
PLAYORDER=
